<svg width="74" height="74" viewBox="0 0 74 74" fill="none" xmlns="http://www.w3.org/2000/svg">
<path fill-rule="evenodd" clip-rule="evenodd" d="M39.1899 6.18921C42.9409 2.43861 48.0283 0.331719 53.3327 0.332031C58.6372 0.332344 63.7243 2.43983 67.4749 6.19088C71.2255 9.94193 73.3324 15.0293 73.3321 20.3337C73.3318 25.6382 71.2243 30.7253 67.4732 34.4759L34.4732 67.4759C30.7222 71.2265 25.6349 73.3334 20.3304 73.3331C15.0259 73.3328 9.93884 71.2253 6.18824 67.4742C2.43763 63.7232 0.330742 58.6358 0.331055 53.3314C0.331367 48.0269 2.43886 42.9398 6.1899 39.1892L39.1899 6.18921ZM62.7566 29.7592L48.6166 43.9026L29.7599 25.0459L43.9032 10.9059C45.1361 9.6449 46.6068 8.64102 48.2303 7.95236C49.8538 7.26369 51.5978 6.90394 53.3613 6.89391C55.1248 6.88389 56.8727 7.2238 58.5039 7.89396C60.1352 8.56412 61.6172 9.55122 62.8643 10.7981C64.1114 12.045 65.0988 13.5269 65.7692 15.158C66.4397 16.7891 66.7799 18.537 66.7702 20.3005C66.7605 22.0639 66.401 23.808 65.7127 25.4316C65.0243 27.0552 64.0207 28.5261 62.7599 29.7592H62.7566Z" fill="white"/>
</svg>
