<svg width="60" height="80" viewBox="0 0 60 80" fill="none" xmlns="http://www.w3.org/2000/svg">
<path d="M5 30H23.75C24.4375 30 25 30.5625 25 31.25V33.75C25 34.4375 24.4375 35 23.75 35H5V45H23.75C24.4375 45 25 45.5625 25 46.25V48.75C25 49.4375 24.4375 50 23.75 50H5V60H23.75C24.4375 60 25 60.5625 25 61.25V63.75C25 64.4375 24.4375 65 23.75 65H5V75C5 77.75 7.25 80 10 80H50C52.75 80 55 77.75 55 75V20H5V30ZM56.25 0H3.75C1.6875 0 0 1.6875 0 3.75V11.25C0 13.3125 1.6875 15 3.75 15H56.25C58.3125 15 60 13.3125 60 11.25V3.75C60 1.6875 58.3125 0 56.25 0Z" fill="white"/>
</svg>
