<svg width="62" height="70" viewBox="0 0 62 70" fill="none" xmlns="http://www.w3.org/2000/svg">
<path d="M19.3337 32.332C15.7974 32.332 12.4061 30.9273 9.90557 28.4268C7.40508 25.9263 6.00032 22.5349 6.00032 18.9987V8.33203C6.00032 7.62479 6.28128 6.94651 6.78137 6.44641C7.28147 5.94632 7.95975 5.66536 8.66699 5.66536H11.3337C12.0409 5.66536 12.7192 5.38441 13.2193 4.88432C13.7194 4.38422 14.0003 3.70594 14.0003 2.9987C14.0003 2.29145 13.7194 1.61318 13.2193 1.11308C12.7192 0.612983 12.0409 0.332031 11.3337 0.332031H8.66699C6.54526 0.332031 4.51043 1.17489 3.01014 2.67518C1.50985 4.17547 0.666992 6.2103 0.666992 8.33203V18.9987C0.67042 22.0113 1.40505 24.9781 2.80779 27.6442C4.21053 30.3104 6.23946 32.5962 8.72032 34.3054C11.1039 36.4068 13.0369 38.9694 14.4027 41.8385C15.7685 44.7076 16.5388 47.8237 16.667 50.9987C16.667 55.9494 18.6337 60.6973 22.1343 64.198C25.635 67.6987 30.3829 69.6654 35.3337 69.6654C40.2844 69.6654 45.0323 67.6987 48.533 64.198C52.0337 60.6973 54.0003 55.9494 54.0003 50.9987V47.9587C56.5141 47.3097 58.7048 45.7661 60.1619 43.6173C61.619 41.4686 62.2424 38.8622 61.9153 36.2867C61.5882 33.7112 60.333 31.3434 58.3849 29.6272C56.4369 27.9109 53.9298 26.9641 51.3337 26.9641C48.7375 26.9641 46.2304 27.9109 44.2824 29.6272C42.3344 31.3434 41.0791 33.7112 40.752 36.2867C40.4249 38.8622 41.0483 41.4686 42.5054 43.6173C43.9625 45.7661 46.1532 47.3097 48.667 47.9587V50.9987C48.667 54.5349 47.2622 57.9263 44.7617 60.4268C42.2613 62.9273 38.8699 64.332 35.3337 64.332C31.7974 64.332 28.406 62.9273 25.9056 60.4268C23.4051 57.9263 22.0003 54.5349 22.0003 50.9987C22.1353 47.8197 22.9139 44.7012 24.289 41.8319C25.6641 38.9626 27.607 36.4021 30.0003 34.3054C32.4713 32.5903 34.4899 30.3019 35.8831 27.6361C37.2764 24.9703 38.0029 22.0066 38.0003 18.9987V8.33203C38.0003 6.2103 37.1575 4.17547 35.6572 2.67518C34.1569 1.17489 32.1221 0.332031 30.0003 0.332031H27.3337C26.6264 0.332031 25.9481 0.612983 25.448 1.11308C24.9479 1.61318 24.667 2.29145 24.667 2.9987C24.667 3.70594 24.9479 4.38422 25.448 4.88432C25.9481 5.38441 26.6264 5.66536 27.3337 5.66536H30.0003C30.7076 5.66536 31.3858 5.94632 31.8859 6.44641C32.386 6.94651 32.667 7.62479 32.667 8.33203V18.9987C32.667 20.7497 32.3221 22.4835 31.6521 24.1011C30.982 25.7188 29.9999 27.1887 28.7617 28.4268C27.5236 29.6649 26.0538 30.647 24.4361 31.3171C22.8184 31.9872 21.0846 32.332 19.3337 32.332ZM51.3337 42.9987C49.9192 42.9987 48.5626 42.4368 47.5624 41.4366C46.5622 40.4364 46.0003 39.0799 46.0003 37.6654C46.0003 36.2509 46.5622 34.8943 47.5624 33.8941C48.5626 32.8939 49.9192 32.332 51.3337 32.332C52.7481 32.332 54.1047 32.8939 55.1049 33.8941C56.1051 34.8943 56.667 36.2509 56.667 37.6654C56.667 39.0799 56.1051 40.4364 55.1049 41.4366C54.1047 42.4368 52.7481 42.9987 51.3337 42.9987Z" fill="white"/>
</svg>
