<svg width="60" height="80" viewBox="0 0 60 80" fill="none" xmlns="http://www.w3.org/2000/svg">
<path d="M35 21.25V0H3.75C1.67188 0 0 1.67188 0 3.75V76.25C0 78.3281 1.67188 80 3.75 80H56.25C58.3281 80 60 78.3281 60 76.25V25H38.75C36.6875 25 35 23.3125 35 21.25ZM45.7078 49.2938L47.475 51.0609C48.4516 52.0375 48.4516 53.6203 47.475 54.5969L42.8031 59.2688L47.5 63.9656C48.4766 64.9422 48.4766 66.525 47.5 67.5016L45.7328 69.2688C44.7562 70.2453 43.1734 70.2453 42.1969 69.2688L37.5 64.5703L32.8031 69.2672C31.8266 70.2438 30.2437 70.2438 29.2672 69.2672L27.5 67.5C26.5234 66.5234 26.5234 64.9406 27.5 63.9641L32.1969 59.2672L22.9281 50H20V57.5C20 58.8812 18.8813 60 17.5 60H15C13.6187 60 12.5 58.8812 12.5 57.5V32.5C12.5 31.1187 13.6187 30 15 30H27.5C33.0234 30 37.5 34.4766 37.5 40C37.5 43.7844 35.3719 47.0391 32.2719 48.7375L37.5 53.9656L42.1719 49.2938C43.1484 48.3172 44.7313 48.3172 45.7078 49.2938ZM27.5 42.5H20V37.5H27.5C28.8781 37.5 30 38.6219 30 40C30 41.3781 28.8781 42.5 27.5 42.5ZM60 19.0469V20H40V0H40.9531C41.9531 0 42.9062 0.390625 43.6094 1.09375L58.9062 16.4062C59.6094 17.1094 60 18.0625 60 19.0469Z" fill="white"/>
</svg>
